<?xml version="1.0" encoding="utf-8" ?>
<svg xmlns="http://www.w3.org/2000/svg" viewBox="0 0 24 24">
    <path
            d="
        M 3.1562,2.0
        Q 3.0,2.0 2.7969,2.1523
        C 1.6446,3.341 1.0003,4.8909 1.0,6.5
        C 1.0,10.1064 4.1607,13.0 8.0,13.0
        C 11.8393,13.0 15.0,10.1064 15.0,6.5
        C 14.9997,4.8909 14.3554,3.341 13.2031,2.1523
        Q 13.0,2.0 12.8437,2.0

        L 3.1562,2.0"
            fill="none"
            stroke="currentColor"
            stroke-linejoin="round"
            stroke-linecap="round"
    />
    <circle cx="5.959" cy="4.0" r="0.7273" fill="currentColor"/>
    <circle cx="9.959" cy="4.0" r="0.7273" fill="currentColor"/>
    <circle cx="4.0" cy="7.0" r="1.0" fill="currentColor"/>
    <circle cx="8.0" cy="7.0" r="1.0" fill="currentColor"/>
    <circle cx="12.0" cy="7.0" r="1.0" fill="currentColor"/>
    <circle cx="6.0" cy="10.0" r="1.0" fill="currentColor"/>
    <circle cx="10.0" cy="10.0" r="1.0" fill="currentColor"/>
    <rect x="1.0" y="13" width="14" height="5" rx="2.5" ry="2.5" fill="none" stroke="currentColor"/>
    <circle cx="3.7" cy="15.5" r="1.4" fill="currentColor" stroke="none"/>
    <circle cx="12.3" cy="15.5" r="1.4" fill="currentColor" stroke="none"/>
</svg>